<?xml version="1.0" encoding="UTF-8"?>
<svg id="Layer_2" data-name="Layer 2" xmlns="http://www.w3.org/2000/svg" viewBox="0 0 658.12 98.44">
  <defs>
    <style>
      .cls-1, .cls-2 {
        stroke-width: 0px;
      }

      .cls-2 {
        fill: #b9b9b9;
      }
    </style>
  </defs>
  <g id="_Слой_1" data-name="Слой 1">
    <g>
      <g>
        <path class="cls-2" d="m60.42,34.88c0,2.32-1.19,4.39-3.19,5.54l-11.32,6.54h0l-20.91-12.08-7.27-4.19c-4.48-2.59-10.05-2.59-14.53,0-.56.33-1.09.68-1.59,1.07-.15.11-.29.23-.43.35-.15.11-.3.24-.45.38-.23.2-.46.42-.67.64l-.06.06V14.46c0-3.72,2-7.19,5.23-9.06,3.23-1.87,7.24-1.86,10.46,0l41.75,24.1.39.44h.24c.2.16.39.33.57.51.07.07.14.15.2.23.39.44.72.93.96,1.45.05.11.1.21.14.32.05.11.09.22.12.33.04.11.07.21.1.32.17.57.25,1.16.25,1.78Z"/>
        <path class="cls-2" d="m28.79,85.48l-13.1,7.56c-3.23,1.86-7.24,1.86-10.46,0-3.23-1.86-5.23-5.33-5.23-9.06v-40.71c0-3.73,2-7.2,5.23-9.06,1.62-.93,3.42-1.4,5.24-1.4s3.62.47,5.23,1.4l5.24,3.02v37.13c0,4.08,2.06,7.8,5.51,9.97.27.17.54.33.83.47.2.11.41.21.62.3.02.02.04.02.06.03.24.11.49.2.73.29.04.02.07.03.11.05Z"/>
        <path class="cls-2" d="m81.12,49.22c0,3.72-2,7.19-5.23,9.06l-39.91,23.04c-.38.19-.77.33-1.17.45-.02,0-.03,0-.04,0-.26.08-.53.14-.8.19-1.84.31-3.74-.06-5.37-1.07-2.26-1.42-3.61-3.86-3.61-6.53v-10.64l20.92-12.07,13.35-7.71c3.28-1.89,5.23-5.28,5.23-9.06,0-.21,0-.42-.02-.63,0-.2-.03-.41-.06-.62,0-.03,0-.07,0-.11l11.49,6.63c3.23,1.87,5.23,5.34,5.23,9.06Z"/>
      </g>
      <path class="cls-1" d="m147.57,51.49c-2.54-2.14-5.56-3.7-9.05-4.65-3.5-.95-6.98-1.77-10.42-2.44-3.46-.67-6.44-1.49-8.95-2.44-2.49-.95-3.78-1.84-3.87-2.68s-.12-1.29-.12-1.37c0-1.36.79-2.51,2.38-3.46,1.67-1.02,4.02-1.54,7.03-1.54,1.84,0,3.41.22,4.77.65,1.36.43,2.34.92,2.98,1.42.64.52,1.15,1.1,1.56,1.74.4.64.64,1.09.72,1.37.07.27.12.49.12.65h15.61l-.25-1.67c-.15-1.19-.7-2.63-1.66-4.28-.95-1.67-2.24-3.35-3.88-5-1.62-1.67-4.2-3.08-7.75-4.23-3.53-1.15-7.65-1.72-12.33-1.72-7.55,0-13.5,1.66-17.87,5-4.37,3.33-6.56,7.11-6.56,11.31v1.07c.25,3.98,2.26,7.13,6.02,9.47,3.78,2.36,7.83,3.87,12.15,4.53,4.33.67,8.28,1.61,11.86,2.79,3.58,1.2,5.4,2.74,5.49,4.65v.23c0,3.82-3.18,5.72-9.54,5.72h-.35c-2.23,0-4.13-.3-5.72-.89-1.59-.6-2.74-1.25-3.46-1.97-.72-.7-1.27-1.54-1.67-2.49-.38-.95-.6-1.61-.65-1.97-.03-.35-.05-.65-.05-.89h-15.49l.23,2.02c.17,1.36.74,2.96,1.72,4.82,1,1.87,2.33,3.76,4,5.67,1.67,1.91,4.27,3.53,7.8,4.89,3.55,1.34,7.65,2.02,12.35,2.02,9.05,0,15.8-1.59,20.25-4.77,4.45-3.18,6.68-7.2,6.68-12.03v-1.32c-.17-3.33-1.51-6.07-4.05-8.22Z"/>
      <path class="cls-1" d="m189.04,35.88v-12.87h-12.87V7.28h-15.38v15.73h-6.91v12.87h6.91v23.83c0,6.84,1.37,11.36,4.12,13.59,2.74,2.23,7.8,3.33,15.19,3.33h8.94v-12.87h-8.94c-1.44,0-2.43-.28-2.98-.89-.55-.6-.84-1.66-.84-3.16v-23.83h12.75Z"/>
      <path class="cls-1" d="m292.28,49.93c0-8.5-2.44-15.31-7.33-20.43s-11.7-7.68-20.43-7.68-15.9,2.58-20.97,7.73c-5.09,5.25-7.63,12.05-7.63,20.38s2.64,15.28,7.91,20.31c5.29,5.05,12.22,7.58,20.8,7.58,4.28,0,8.15-.64,11.56-1.91,3.41-1.27,5.99-2.68,7.75-4.23,1.74-1.56,3.23-3.33,4.47-5.37,1.22-2.02,1.97-3.43,2.26-4.22.28-.8.45-1.44.54-1.91h-15.36l-.25.59c-.15.4-.49.89-1,1.44-.52.55-1.15,1.09-1.91,1.61-.75.52-1.84.97-3.23,1.37-1.39.4-2.95.59-4.7.59-3.73,0-6.89-1.02-9.47-3.1-2.58-2.06-4.03-4.84-4.35-8.33h41.11c.15-1.51.23-2.98.23-4.42Zm-14.89-5.84h-26.45c.49-3.01,1.92-5.47,4.35-7.38,2.43-1.91,5.54-2.86,9.35-2.86s6.79.89,9.17,2.68c2.39,1.79,3.58,4.2,3.58,7.21v.35Z"/>
      <path class="cls-1" d="m342.8,23.01v7.86c-3.41-5.56-8.62-8.5-15.6-8.82-.89-.08-1.76-.12-2.63-.12-8.1,0-14.62,2.46-19.54,7.38-5.4,5.4-8.1,12.28-8.1,20.62s2.56,15.36,7.68,20.31c5.12,4.97,11.61,7.46,19.48,7.46,1.12,0,2.23-.05,3.35-.13,6.51-.38,11.45-3.16,14.77-8.33v7.38h15.38V23.01h-14.79Zm-4.64,38.49c-2.71,2.69-6.27,4.05-10.73,4.05s-7.85-1.36-10.66-4.05c-2.83-2.69-4.23-6.56-4.23-11.56s1.39-8.99,4.17-11.73c2.78-2.74,6.36-4.12,10.73-4.12s8.12,1.25,10.78,3.75c2.66,2.51,4,6.51,4,11.98,0,5.09-1.36,8.99-4.05,11.68Z"/>
      <path class="cls-1" d="m453.64,28.31c-3.43-4.33-9.1-6.49-17.05-6.49h-1.31c-8.12.23-14.22,3.53-18.36,9.89-3.33-6.59-9.81-9.89-19.43-9.89h-1.07c-7.23.23-12.55,3.18-15.96,8.82v-7.63h-14.78v53.61h15.38v-24.55c0-6.19,1-10.76,3.03-13.7,2.02-2.93,5.45-4.4,10.31-4.4,3.18,0,5.66,1.15,7.45,3.45,1.79,2.31,2.69,5.69,2.69,10.14v29.07h15.36v-24.55c0-6.19,1.02-10.76,3.05-13.7,2.02-2.93,5.45-4.4,10.31-4.4,3.18,0,5.66,1.15,7.45,3.45,1.79,2.31,2.68,5.69,2.68,10.14v29.07h15.38v-29.07c0-8.5-1.71-14.93-5.12-19.24Z"/>
      <path class="cls-1" d="m518.58,29.68c-5.17-5.17-11.8-7.75-19.9-7.75-.89,0-1.76.03-2.63.12-6.53.32-11.53,2.98-15.03,7.98v-7.03h-15.01v75.43h15.38v-28.61c3.33,4.7,8.13,7.28,14.41,7.75,1.12.08,2.23.13,3.35.13,7.86,0,14.36-2.49,19.48-7.46,5.14-4.95,7.7-11.73,7.7-20.31s-2.59-15.09-7.75-20.25Zm-12.1,31.81c-2.83,2.69-6.38,4.05-10.68,4.05s-8.02-1.36-10.71-4.05c-2.71-2.69-4.07-6.59-4.07-11.68,0-5.47,1.34-9.47,4-11.98,2.66-2.49,6.26-3.75,10.78-3.75s7.95,1.37,10.73,4.12c2.79,2.74,4.18,6.64,4.18,11.73s-1.42,8.87-4.23,11.56Z"/>
      <path class="cls-1" d="m584.41,29.8c-5.44-5.32-12.88-7.98-22.34-7.98s-16.88,2.66-22.29,7.98c-5.47,5.32-8.22,12-8.22,20.01s2.71,14.59,8.17,19.96c5.44,5.35,12.88,8.05,22.34,8.05s16.92-2.66,22.41-8c5.4-5.24,8.1-11.91,8.1-20.01s-2.73-14.69-8.17-20.01Zm-11.31,31.39c-2.59,3.06-6.26,4.58-11.03,4.58s-8.53-1.51-11.08-4.52c-2.54-3.03-3.82-6.84-3.82-11.45s1.27-8.62,3.82-11.56c2.54-2.93,6.22-4.4,11.08-4.4s8.53,1.47,11.08,4.4c2.54,2.95,3.82,6.79,3.82,11.56s-1.29,8.33-3.87,11.38Z"/>
      <path class="cls-1" d="m642.74,0v29.55c-3.5-4.69-8.38-7.18-14.66-7.5-.87-.08-1.74-.12-2.63-.12-8.1,0-14.61,2.46-19.54,7.38-5.39,5.4-8.1,12.28-8.1,20.62s2.56,15.36,7.68,20.31c5.14,4.97,11.63,7.46,19.49,7.46,1.1,0,2.23-.05,3.33-.13,6.53-.38,11.45-3.16,14.78-8.33v7.38h15.03V0h-15.38Zm-3.7,61.49c-2.69,2.69-6.27,4.05-10.73,4.05s-7.85-1.36-10.66-4.05c-2.83-2.69-4.23-6.56-4.23-11.56s1.39-8.99,4.17-11.73c2.79-2.74,6.36-4.12,10.73-4.12s8.13,1.25,10.79,3.75c2.66,2.51,3.98,6.51,3.98,11.98,0,5.09-1.34,8.99-4.05,11.68Z"/>
      <path class="cls-1" d="m231.93,23.01v15.36h-14.43c-3.55,0-6.43,2.88-6.43,6.43v31.82h-15.36v-31.89c0-12,9.72-21.72,21.72-21.72h14.5Z"/>
    </g>
  </g>
</svg>