<?xml version="1.0" encoding="UTF-8"?>
<svg id="Layer_2" data-name="Layer 2" xmlns="http://www.w3.org/2000/svg" viewBox="0 0 286.78 319.68">
  <defs>
    <style>
      .cls-1 {
        stroke-width: 0px;
      }
    </style>
  </defs>
  <g id="_Слой_1" data-name="Слой 1">
    <g>
      <path class="cls-1" d="m213.58,109.15c0,8.19-4.2,15.52-11.29,19.57l-40,23.13h-.03l-73.91-42.7-25.69-14.83c-15.83-9.14-35.52-9.14-51.36,0-1.98,1.15-3.85,2.41-5.63,3.79-.52.37-1.03.8-1.52,1.24-.55.4-1.06.86-1.58,1.35-.8.72-1.61,1.49-2.36,2.27l-.2.2V36.96C0,23.8,7.07,11.53,18.48,4.95c11.41-6.61,25.58-6.58,36.99,0l147.6,85.21,1.38,1.55h.86c.72.57,1.38,1.18,2.01,1.81.23.26.49.52.72.8,1.38,1.55,2.53,3.28,3.39,5.12.17.37.34.75.49,1.12.17.4.32.78.43,1.18.14.37.26.75.35,1.12.6,2.01.89,4.11.89,6.29Z"/>
      <path class="cls-1" d="m101.79,288.02l-46.33,26.73c-11.41,6.58-25.58,6.58-36.99,0-11.41-6.58-18.48-18.85-18.48-32.01v-143.92c0-13.19,7.07-25.46,18.48-32.04,5.72-3.28,12.1-4.94,18.51-4.94s12.79,1.67,18.48,4.94l18.51,10.69v131.28c0,14.43,7.27,27.59,19.48,35.23.95.6,1.93,1.15,2.93,1.67.72.37,1.44.75,2.18,1.06.09.06.14.09.23.12.86.37,1.72.72,2.59,1.03.14.09.26.11.4.17Z"/>
      <path class="cls-1" d="m286.78,159.84c0,13.16-7.07,25.43-18.48,32.04l-141.1,81.44c-1.35.66-2.73,1.18-4.14,1.58-.06,0-.12,0-.14.03-.92.29-1.87.49-2.85.66-6.49,1.09-13.22-.2-18.97-3.79-7.99-5.03-12.76-13.65-12.76-23.08v-37.62l73.94-42.68,47.19-27.24c11.58-6.7,18.48-18.65,18.48-32.04,0-.75-.03-1.49-.06-2.24-.03-.72-.12-1.47-.2-2.18,0-.12,0-.26-.03-.37l40.64,23.45c11.41,6.61,18.48,18.88,18.48,32.04Z"/>
    </g>
  </g>
</svg>